<?xml version="1.0" encoding="UTF-8" standalone="no"?>
<!-- Created with Inkscape (http://www.inkscape.org/) -->

<svg
   width="210mm"
   height="297mm"
   viewBox="0 0 210 297"
   version="1.1"
   id="svg1"
   inkscape:version="1.3.2 (091e20e, 2023-11-25, custom)"
   sodipodi:docname="Bitmap Improved2.svg"
   xmlns:inkscape="http://www.inkscape.org/namespaces/inkscape"
   xmlns:sodipodi="http://sodipodi.sourceforge.net/DTD/sodipodi-0.dtd"
   xmlns="http://www.w3.org/2000/svg"
   xmlns:svg="http://www.w3.org/2000/svg">
  <sodipodi:namedview
     id="namedview1"
     pagecolor="#ffffff"
     bordercolor="#000000"
     borderopacity="0.25"
     inkscape:showpageshadow="2"
     inkscape:pageopacity="0.0"
     inkscape:pagecheckerboard="0"
     inkscape:deskcolor="#d1d1d1"
     inkscape:document-units="mm"
     inkscape:zoom="0.51213161"
     inkscape:cx="220.64641"
     inkscape:cy="528.18454"
     inkscape:window-width="1920"
     inkscape:window-height="1009"
     inkscape:window-x="-8"
     inkscape:window-y="-8"
     inkscape:window-maximized="1"
     inkscape:current-layer="layer1" />
  <defs
     id="defs1" />
  <g
     inkscape:label="Layer 1"
     inkscape:groupmode="layer"
     id="layer1">
    <path
       style="fill:#23a3d4;stroke-width:0.566151"
       d="m 119.7858,217.12057 c -0.40879,-0.28633 -0.74327,-0.74426 -0.74327,-1.01764 0,-0.27337 1.14598,-3.08654 2.54661,-6.25149 1.40064,-3.16495 3.18725,-7.10888 3.97028,-8.76428 0.78303,-1.65539 1.69044,-3.61178 2.01647,-4.34752 0.32601,-0.73572 1.33633,-2.89357 2.24513,-4.79519 0.90878,-1.90163 2.0015,-4.38473 2.42824,-5.518 0.42673,-1.13328 1.46732,-3.62237 2.31241,-5.5313 0.84508,-1.90895 1.53652,-3.61937 1.53652,-3.80095 0,-0.18158 2.77559,-6.97196 6.16799,-15.08975 3.39238,-8.11779 6.79165,-16.11404 7.55391,-17.76943 0.76225,-1.65541 1.84089,-3.98802 2.39699,-5.18358 0.5561,-1.19557 1.67156,-3.56839 2.47882,-5.27295 0.80726,-1.70456 1.46775,-3.21999 1.46775,-3.36765 0,-0.14766 0.52328,-0.8798 1.16284,-1.62699 0.63957,-0.74719 1.73064,-1.58213 2.42458,-1.85543 0.8204,-0.3231 2.62739,-0.51715 5.166,-0.55476 3.90425,-0.0579 3.90425,-0.0579 4.78966,1.05179 0.48696,0.6103 2.6889,4.86785 4.89319,9.46124 2.20429,4.59338 4.20928,8.80307 4.45553,9.35488 0.24625,0.5518 1.01027,2.43293 1.69783,4.1803 0.68755,1.74736 2.6791,6.63832 4.42566,10.86879 1.74654,4.23047 3.98997,9.72339 4.98537,12.20649 0.9954,2.4831 2.23953,5.49292 2.76472,6.68849 0.52521,1.19557 1.35709,3.22719 1.84865,4.51473 0.49155,1.28754 1.25968,3.13516 1.70695,4.10584 0.44728,0.97068 0.81322,1.83393 0.81322,1.91833 0,0.0844 0.9113,2.37529 2.02511,5.09085 1.11379,2.71554 2.93748,7.19472 4.0526,9.95372 1.11512,2.759 2.22112,5.46783 2.45776,6.01964 0.23664,0.5518 0.67033,1.58598 0.96377,2.2982 0.29341,0.71221 0.5335,1.56679 0.5335,1.89906 0,0.33226 -0.23649,0.8406 -0.52552,1.12964 -0.44824,0.44823 -1.69019,0.52534 -8.44423,0.52427 -7.09663,-10e-4 -8.02284,-0.0651 -8.92196,-0.61569 -0.80297,-0.49177 -1.22829,-1.24266 -2.13033,-3.76102 -0.61987,-1.73063 -1.3239,-3.59806 -1.56449,-4.14986 -0.24059,-0.5518 -0.73159,-1.68048 -1.09112,-2.50818 -0.35952,-0.82771 -1.05736,-2.6336 -1.55074,-4.01309 -0.49338,-1.37951 -1.22585,-3.18479 -1.62771,-4.01174 -0.40185,-0.82696 -1.10687,-1.69006 -1.56671,-1.91801 -0.62968,-0.31215 -4.81536,-0.41568 -16.9563,-0.41939 -11.07146,-0.003 -16.37441,0.11087 -16.93177,0.36483 -0.60819,0.27711 -1.19507,1.30361 -2.3422,4.0967 -0.84187,2.04981 -2.59851,6.28529 -3.90366,9.41216 -1.77619,4.25541 -2.63875,5.9165 -3.42973,6.60488 -1.05673,0.91966 -1.05673,0.91966 -8.4359,0.91966 -6.13746,0 -7.50423,-0.0876 -8.12242,-0.5206 z m 55.16288,-36.1507 c 0.34604,-0.31316 0.61159,-1.01108 0.61159,-1.60742 0,-0.62822 -0.94562,-2.97839 -2.34098,-5.81809 -1.28753,-2.62027 -2.34097,-4.82142 -2.34097,-4.89143 0,-0.07 -1.28094,-2.8086 -2.84653,-6.08576 -1.56559,-3.27714 -3.03865,-6.33467 -3.27346,-6.79451 -0.23482,-0.45983 -0.64572,-0.83606 -0.91312,-0.83606 -0.26741,0 -0.97455,0.97818 -1.57141,2.17376 -0.59688,1.19556 -1.29851,2.70047 -1.5592,3.34424 -0.26069,0.64377 -1.93631,4.18031 -3.72359,7.85898 -1.78729,3.67866 -3.60756,7.49728 -4.04504,8.48582 -0.43748,0.98854 -0.79541,2.21934 -0.79541,2.73512 0,0.51577 0.23649,1.17426 0.52552,1.4633 0.45557,0.45557 1.93213,0.52552 11.09328,0.52552 9.3641,0 10.63741,-0.0631 11.17932,-0.55347 z m -82.032839,10.92429 c -0.883022,-0.53839 -1.086882,-0.87586 -1.086882,-1.79922 0,-0.93037 0.476836,-1.70473 2.628636,-4.26882 1.445753,-1.72276 3.822316,-4.27028 5.281254,-5.66115 2.130801,-2.03138 2.978801,-2.61311 4.310671,-2.95713 0.91193,-0.23555 3.23821,-0.87894 5.16952,-1.42977 1.93128,-0.55084 4.00078,-1.15064 4.59887,-1.33292 0.59808,-0.18226 6.89793,-4.98485 13.99966,-10.67242 7.10172,-5.68757 13.11097,-10.34105 13.35388,-10.34105 0.24292,0 0.53537,0.29522 0.64989,0.65605 0.11815,0.37226 -0.13647,1.49333 -0.58867,2.59178 -0.43829,1.06466 -2.79286,6.5487 -5.23239,12.18673 -4.43548,10.25099 -4.43548,10.25099 -8.11672,13.17902 -2.02469,1.6104 -5.28422,4.38151 -7.2434,6.15801 -1.95919,1.77649 -4.07438,3.48336 -4.70041,3.79303 -0.62606,0.30967 -1.35318,0.56304 -1.61585,0.56304 -0.26267,0 -1.10487,-0.50704 -1.87156,-1.12676 -0.76668,-0.61972 -2.66163,-1.97413 -4.21098,-3.00982 -2.2132,-1.47944 -3.09486,-1.88305 -4.1133,-1.88305 -0.71297,0 -1.7582,0.23885 -2.32276,0.53079 -0.56454,0.29193 -1.968829,1.4075 -3.120641,2.47903 -1.151813,1.07152 -2.556101,2.18708 -3.120645,2.47901 -0.564543,0.29195 -1.146785,0.53024 -1.293872,0.52955 -0.147086,-5.6e-4 -0.756519,-0.29945 -1.354301,-0.66393 z m 50.795389,-69.78252 c -0.50312,-0.26515 -1.29248,-0.97726 -1.75411,-1.58249 -0.46165,-0.60525 -0.99056,-1.8978 -1.17537,-2.87235 -0.18482,-0.97457 -0.33604,-5.17719 -0.33604,-9.33916 0,-6.69362 0.076,-7.77513 0.65822,-9.368058 0.36203,-0.990467 1.1521,-2.620967 1.75573,-3.623353 0.60363,-1.002382 1.82695,-2.405609 2.71851,-3.118283 0.89154,-0.712673 2.46797,-1.696454 3.50316,-2.186178 1.59934,-0.756613 2.36079,-0.896147 5.06737,-0.928586 3.18522,-0.03817 3.18522,-0.03817 3.63385,1.379179 0.29474,0.931147 0.8963,1.771914 1.75363,2.450922 0.71774,0.56846 1.85619,1.185763 2.5299,1.371783 0.67373,0.186021 1.86623,0.242053 2.65002,0.124516 0.78379,-0.117537 2.04237,-0.660872 2.79684,-1.20741 0.81491,-0.590316 1.67872,-1.6358 2.12788,-2.575436 0.75613,-1.581732 0.75613,-1.581732 4.09025,-1.547659 2.91622,0.0298 3.58562,0.152056 5.34065,0.975382 1.1036,0.517719 2.47964,1.330087 3.05786,1.805261 0.57824,0.475173 1.6693,1.649603 2.42458,2.609842 0.7553,0.960239 1.37327,1.906899 1.37327,2.103698 0,0.196788 0.30938,0.776264 0.68751,1.287713 0.66349,0.897412 0.68394,1.279723 0.58524,10.938847 -0.0996,9.75118 -0.12193,10.04056 -0.86552,11.23638 -0.41979,0.67509 -1.29372,1.54041 -1.94207,1.92294 -1.15914,0.68391 -1.50065,0.69491 -20.47269,0.66003 -16.10603,-0.0296 -19.44504,-0.11513 -20.20867,-0.51753 z m 7.11258,-10.99029 c 0.53955,-0.27902 1.20928,-0.94875 1.48829,-1.4883 0.27903,-0.53956 0.5073,-1.45501 0.5073,-2.03434 0,-0.752 -0.32527,-1.3786 -1.13704,-2.19036 -0.8664,-0.8664 -1.41986,-1.13704 -2.32524,-1.13704 -0.6535,0 -1.58277,0.17978 -2.06506,0.39953 -0.48228,0.21975 -1.09133,0.81424 -1.35343,1.3211 -0.26212,0.50684 -0.47657,1.39039 -0.47657,1.96341 0,0.57303 0.1601,1.34102 0.35577,1.70663 0.19567,0.36562 0.83526,0.95713 1.42131,1.31446 0.58605,0.35733 1.41162,0.65026 1.8346,0.65095 0.42298,6.9e-4 1.21052,-0.22703 1.75007,-0.50604 z m 10.84263,-20.379024 c -0.7876,-0.787611 -0.82084,-0.997521 -0.82084,-5.182509 0,-4.361649 0,-4.361649 -1.64097,-5.951234 -1.1595,-1.123205 -1.7581,-2.029242 -2.04022,-3.08809 -0.2196,-0.824179 -0.32304,-2.066855 -0.22987,-2.761507 0.0932,-0.694649 0.46034,-1.826213 0.81592,-2.514586 0.35559,-0.688374 1.28566,-1.703059 2.06684,-2.25486 1.26262,-0.891869 1.68953,-1.003273 3.84469,-1.003273 2.10302,0 2.60114,0.12251 3.75808,0.924263 0.73354,0.508345 1.64487,1.486536 2.02521,2.173759 0.3803,0.687222 0.7965,1.745234 0.92486,2.351137 0.12902,0.608967 0.048,1.874475 -0.18118,2.829729 -0.32277,1.345448 -0.77366,2.077868 -2.03635,3.30777 -1.62181,1.57968 -1.62181,1.57968 -1.62181,5.964111 0,4.209176 -0.0329,4.417242 -0.82085,5.20529 -0.56674,0.566739 -1.19263,0.82086 -2.02175,0.82086 -0.82912,0 -1.45502,-0.254121 -2.02176,-0.82086 z"
       id="path67"
       sodipodi:nodetypes="ssssssssssssssssssssssssssssssssssssssssssssssssssssssssssssssssssssssssssssssssssssscsssssssssssssssssssssssssssssssssssssssssssssssssscsssss" />
    <path
       style="display:inline;fill:#09446c;stroke-width:0.566151"
       d="m 3.6488074,214.39851 c -0.4004921,-0.0779 -0.9007834,-0.34972 -1.1117574,-0.60393 -0.2919286,-0.35176 -0.2610389,-0.72654 0.129268,-1.56844 0.282071,-0.60843 0.9081051,-2.15968 1.3911861,-3.44721 0.4830811,-1.28754 1.0961405,-2.94293 1.3623534,-3.67868 0.2662139,-0.73572 0.695988,-1.78916 0.9550541,-2.34096 0.2590661,-0.5518 1.015676,-2.43294 1.6813531,-4.18031 0.6656782,-1.74737 1.6012671,-4.15523 2.0790863,-5.35079 0.477819,-1.19556 1.203002,-3.07671 1.611515,-4.18031 0.408512,-1.10359 1.518345,-3.96292 2.466292,-6.35406 0.947946,-2.39113 1.852209,-4.64849 2.009472,-5.01637 0.157265,-0.36786 0.807225,-2.02327 1.444358,-3.67866 0.637133,-1.6554 1.577505,-4.06326 2.089714,-5.35079 0.512209,-1.28754 1.222926,-3.09343 1.579372,-4.01309 0.356446,-0.91967 0.994868,-2.57507 1.418717,-3.67867 0.423849,-1.1036 1.482544,-3.81244 2.352656,-6.01964 0.870112,-2.2072 2.103668,-5.36751 2.741235,-7.02292 0.637567,-1.65539 1.448782,-3.62826 1.802699,-4.38414 0.353918,-0.75589 0.643487,-1.548 0.643487,-1.76026 0,-0.21227 0.149232,-0.64726 0.331625,-0.96666 0.182393,-0.31938 0.998078,-2.31134 1.812632,-4.42658 0.814553,-2.11523 1.863853,-4.52308 2.331775,-5.35079 0.467922,-0.8277 1.376442,-1.92003 2.018933,-2.42741 0.642491,-0.50737 1.588457,-1.09475 2.102148,-1.30528 0.513691,-0.21054 2.137911,-0.42635 3.609378,-0.47959 1.667392,-0.0603 3.368398,0.0961 4.514729,0.4152 1.011633,0.2816 2.366053,0.82362 3.00982,1.2045 0.643766,0.38087 1.548074,1.03818 2.009572,1.4607 0.461497,0.42251 1.808812,2.76878 2.994033,5.21395 1.185221,2.44517 3.194785,6.62787 4.465699,9.29491 1.270914,2.66703 2.469366,5.15013 2.663229,5.518 0.193861,0.36787 0.771227,1.49655 1.28304,2.50819 0.511812,1.01163 1.848258,3.72046 2.969889,6.01963 1.170649,2.39965 2.560126,4.71451 3.261962,5.4344 0.672447,0.68976 1.34855,1.2541 1.502453,1.2541 0.153903,0 1.966878,1.00293 4.02883,2.22875 2.061953,1.2258 4.952932,2.93939 6.4244,3.80794 1.471467,0.86856 3.27736,1.90202 4.013092,2.29658 0.735736,0.39456 2.090151,1.1829 3.009819,1.75186 0.919668,0.56897 2.123595,1.28827 2.675395,1.59845 0.551799,0.31019 1.571506,0.91049 2.266004,1.33403 0.694504,0.42353 1.409339,1.04398 1.588519,1.37877 0.179182,0.3348 0.325782,0.75247 0.325782,0.92813 0,0.17568 -1.149141,1.65285 -2.553656,3.28263 -1.404508,1.62977 -2.840445,3.60107 -3.190966,4.38065 -0.529312,1.17723 -0.577486,1.6396 -0.284287,2.72846 0.209448,0.77782 0.82143,1.72229 1.504734,2.32223 0.751419,0.65977 1.684539,1.09113 2.684759,1.24111 1.079787,0.16192 1.94913,0.07 2.940325,-0.31074 0.774003,-0.29735 2.535958,-1.52574 3.915455,-2.72977 1.9915,-1.73818 2.68042,-2.15691 3.34424,-2.03266 0.45984,0.0861 2.25709,0.95781 3.9939,1.93724 1.73683,0.97942 3.88132,2.4741 4.76557,3.32151 1.20191,1.15186 1.60769,1.78725 1.60769,2.51738 0,0.53715 -0.23487,1.31195 -0.52194,1.72181 -0.28706,0.40984 -0.96427,0.97391 -1.50491,1.25347 -0.86098,0.44524 -0.98297,0.69034 -0.98297,1.97492 0,1.23592 -0.16644,1.60664 -1.05821,2.35702 -0.74191,0.62427 -1.2667,0.82431 -1.75574,0.66925 -0.38362,-0.12165 -0.9909,-0.2456 -1.34952,-0.27546 -0.36835,-0.0307 -0.81049,0.25755 -1.01632,0.66251 -0.20037,0.39423 -0.56498,0.95858 -0.81024,1.2541 -0.24526,0.29551 -0.88326,0.5373 -1.41778,0.5373 -0.53453,0 -1.90814,-0.46797 -3.05248,-1.03995 -1.144343,-0.57197 -3.973402,-2.29351 -6.2868,-3.82566 -2.313391,-1.53213 -4.412483,-3.0343 -4.664646,-3.33813 -0.252159,-0.30383 -0.481066,-1.22146 -0.508677,-2.03916 -0.03849,-1.14068 -0.274045,-1.72039 -1.011882,-2.49052 -0.528921,-0.55208 -3.072459,-2.22977 -5.652304,-3.72821 -2.579845,-1.49843 -5.668819,-3.35073 -6.864384,-4.11619 -1.195565,-0.76549 -2.585133,-1.60294 -3.087915,-1.86102 -0.502788,-0.25807 -2.834404,-1.59792 -5.181363,-2.97742 -2.346958,-1.37949 -4.516156,-2.61051 -4.820441,-2.73556 -0.304283,-0.12506 -0.654097,-0.39058 -0.777365,-0.59002 -0.123269,-0.19946 -0.795998,-0.65439 -1.494961,-1.01097 -0.698961,-0.35659 -2.118415,-1.42298 -3.154341,-2.36975 -1.035927,-0.94679 -1.883503,-1.85756 -1.883503,-2.02393 0,-0.16638 -0.357919,-1.0166 -0.795375,-1.88938 -0.437458,-0.87278 -1.769283,-3.54326 -2.959613,-5.93439 -1.19033,-2.39114 -3.192817,-6.4544 -4.449971,-9.02947 -1.257154,-2.57506 -2.438868,-4.78487 -2.626029,-4.91069 -0.187162,-0.12581 -0.462628,-0.15314 -0.612147,-0.0607 -0.149519,0.0924 -0.510248,0.72205 -0.80162,1.39923 -0.291372,0.67717 -0.65168,1.60744 -0.800686,2.06729 -0.149005,0.45983 -0.669297,1.88949 -1.156205,3.17703 -0.486907,1.28753 -1.391074,3.77063 -2.009259,5.518 -0.618184,1.74737 -1.44813,4.00473 -1.844322,5.01637 -0.396191,1.01163 -1.026009,2.74228 -1.399596,3.84587 -0.373586,1.10361 -0.813762,2.25902 -0.97817,2.56757 -0.164407,0.30855 -0.215937,0.77727 -0.114511,1.04158 0.10142,0.26431 0.569924,0.65622 1.041109,0.87091 0.619689,0.28235 2.904463,0.32878 8.258606,0.16784 7.311094,-0.21977 7.418321,-0.21306 8.739607,0.54662 0.735732,0.42301 1.713924,1.09498 2.173758,1.49327 0.459834,0.39829 1.889498,1.40475 3.177032,2.23661 1.287534,0.83185 2.988463,1.84248 3.779842,2.24582 0.791383,0.40336 3.274484,1.82763 5.518001,3.16506 2.243523,1.33744 4.956448,2.94813 6.028722,3.57931 1.072268,0.63118 2.360144,1.37335 2.86193,1.64924 0.501791,0.27591 1.43037,0.90732 2.063509,1.40316 0.633139,0.49583 1.479468,1.54927 1.880727,2.34097 0.401265,0.7917 1.054932,2.19191 1.452603,3.11157 0.397665,0.91966 1.310908,2.86938 2.029427,4.33271 0.718526,1.46331 1.306401,2.90051 1.306401,3.19375 0,0.29325 0.141163,0.67613 0.313698,0.85087 0.17253,0.17473 0.848922,1.57068 1.503087,3.1021 0.881849,2.06439 1.106691,2.93891 0.869553,3.38201 -0.179136,0.33473 -0.877173,0.68974 -1.586697,0.80701 -0.696768,0.11514 -4.171274,0.21101 -7.721129,0.21303 -5.139648,0.003 -6.655452,-0.10036 -7.441954,-0.50707 -0.67825,-0.35073 -1.288403,-1.16271 -1.947579,-2.59178 -0.527942,-1.14458 -1.295553,-2.90875 -1.705792,-3.92039 -0.410245,-1.01163 -1.024859,-2.44129 -1.365813,-3.17703 -0.340953,-0.73573 -1.077799,-2.33739 -1.63744,-3.55926 -0.559635,-1.22187 -1.022226,-2.35055 -1.027978,-2.50818 -0.0058,-0.15764 -0.380601,-1.03907 -0.833001,-1.95874 -0.452401,-0.91966 -0.823921,-1.86396 -0.825603,-2.09843 -0.0017,-0.23447 -0.416907,-0.60598 -0.922725,-0.82557 -0.668206,-0.2901 -5.080207,-0.39919 -16.135978,-0.39896 -11.730106,2.3e-4 -15.392373,0.0983 -15.984773,0.42787 -0.422655,0.23517 -0.930443,0.83227 -1.128416,1.32691 -0.197974,0.49464 -0.659229,1.65178 -1.02501,2.57146 -0.36578,0.91966 -1.034455,2.65031 -1.485943,3.84587 -0.451488,1.19557 -0.949948,2.54999 -1.107688,3.00982 -0.157742,0.45985 -0.586029,1.58852 -0.951751,2.50819 -0.365721,0.91967 -1.143775,2.89604 -1.729008,4.39194 -0.77442,1.97949 -1.287257,2.82152 -1.884023,3.09343 -0.532642,0.24269 -3.304617,0.35765 -7.910745,0.32806 -3.8999317,-0.025 -7.4184593,-0.10932 -7.8189526,-0.1873 z M 38.464558,121.95602 c -0.932705,-0.11385 -1.96059,-0.28143 -2.38848,-0.3877 -1.201531,-0.29841 -1.643323,-0.3409 -3.389697,-1.12176 -0.671565,-0.30029 -1.856463,-0.83842 -2.633106,-1.19585 -0.776643,-0.35744 -2.461326,-1.68878 -3.74374,-2.95854 -1.709932,-1.69306 -2.648709,-2.97676 -3.520682,-4.81427 -1.16581,-2.45672 -1.189019,-2.5874 -1.189019,-6.69544 0,-3.45612 0.08576,-4.18982 0.489743,-4.18982 0.269359,0 1.962383,0.73108 3.762274,1.62462 1.799893,0.89354 5.981369,2.9558 9.29217,4.58278 3.310803,1.627 6.621604,3.11993 7.357338,3.31764 0.978954,0.26307 1.696442,0.25478 2.675395,-0.0309 0.735734,-0.2147 2.165398,-0.75862 3.177032,-1.20872 1.011633,-0.45008 5.271318,-2.53148 9.465966,-4.62532 5.334656,-2.66291 7.700484,-3.68749 7.872385,-3.40935 0.135163,0.2187 0.203882,1.71903 0.152714,3.33408 -0.05117,1.61505 -0.235066,3.6889 -0.40866,4.60858 -0.173587,0.91966 -0.630619,2.31224 -1.015625,3.09461 -0.385005,0.78236 -1.548079,2.25711 -2.584612,3.27721 -1.036526,1.02011 -2.902528,2.44923 -4.146668,3.17585 -1.244139,0.72662 -2.386306,1.32205 -2.538149,1.32318 -0.151841,0.001 -0.701474,0.22394 -1.221405,0.49512 -0.519931,0.27117 -2.010345,0.81023 -3.312034,1.19788 -1.766104,0.52598 -3.393284,0.71859 -6.412007,0.75898 -2.224916,0.0298 -4.808426,-0.0391 -5.741133,-0.15284 z m 22.281455,-10.00286 c 0.353871,-0.1894 0.957609,-0.58517 1.233166,-1.12354 0.39754,-0.77669 0.42043,-1.49781 0.42043,-1.8932 0,-0.39541 -0.332065,-1.23058 -0.957436,-1.85595 -0.819341,-0.81934 -1.615663,-1.13704 -2.386806,-1.13704 -0.771144,0 -1.587422,0.19797 -2.406762,1.01731 -0.625373,0.62537 -0.937482,1.58027 -0.937482,1.97568 0,0.39539 0.0564,1.18363 0.332297,1.71716 0.275895,0.53352 0.934324,1.09521 1.256212,1.2827 0.321886,0.18748 1.084239,0.34545 1.694114,0.35105 0.609876,0.006 1.398397,-0.14478 1.752267,-0.33417 z m 14.361729,-9.97428 c 0,-4.962808 -0.09135,-9.261337 -0.202994,-9.552281 -0.111646,-0.290944 -0.541801,-0.528989 -0.955897,-0.528989 -0.414094,0 -3.52068,1.361328 -6.903527,3.025171 -3.38284,1.663843 -6.413982,3.168758 -6.735865,3.344246 -0.321885,0.175488 -0.886225,0.469568 -1.254092,0.653499 -0.367867,0.18393 -1.007454,0.510951 -1.421305,0.726715 -0.413849,0.215764 -2.483101,1.249189 -4.598335,2.296519 -2.115234,1.04733 -4.372599,2.14388 -5.016365,2.43678 -0.643768,0.29291 -1.883717,0.76981 -2.755442,1.05978 -1.543113,0.5133 -1.644644,0.50356 -3.845881,-0.36876 -1.243508,-0.49278 -2.660382,-1.17541 -3.148611,-1.51696 -0.488227,-0.34154 -0.998319,-0.62099 -1.133538,-0.62099 -0.135218,0 -2.745579,-1.224 -5.800801,-2.72001 -3.055223,-1.496014 -8.188542,-4.044308 -11.407377,-5.662879 -3.218835,-1.618574 -7.41271,-3.739317 -9.319724,-4.712762 -1.9070129,-0.973446 -3.5416272,-1.963606 -3.6324759,-2.200354 -0.090853,-0.23675 -0.00542,-0.622998 0.1899264,-0.85833 0.1953084,-0.235333 4.9902335,-2.738692 10.6553885,-5.563019 5.665155,-2.824328 10.526019,-5.255117 10.801919,-5.401752 0.2759,-0.146634 3.423703,-1.730749 6.995117,-3.520253 5.539034,-2.775406 6.721458,-3.249466 8.044507,-3.225219 1.324823,0.02429 3.81629,1.157185 17.08344,7.768078 8.542827,4.256808 16.284871,8.130039 17.204533,8.607179 0.919668,0.477142 1.860238,1.014078 2.090158,1.193191 0.229914,0.179114 0.418029,0.610429 0.418029,0.958478 0,0.355077 -0.477028,0.923629 -1.08688,1.295422 -0.597783,0.364433 -1.23737,0.713246 -1.421307,0.775138 -0.208644,0.07021 -0.397308,4.064152 -0.501633,10.619302 -0.167213,10.50676 -0.167213,10.50676 -1.254094,10.61156 -1.086874,0.10478 -1.086874,0.10478 -1.086874,-8.9185 z"
       id="path66"
       sodipodi:nodetypes="sssssssssssssssssssssssssssssssssssssssssssssssssssssssssssssssssssssssssssssssssssssssssssssssssssssssssssscssssssssssssssssssssssssssssssssssssssssssssssssssssssscsssssssssssssssssssssscsssssssss" />
  </g>
</svg>
